<svg width="208" height="18" viewBox="0 0 208 18" fill="none" xmlns="http://www.w3.org/2000/svg">
<path d="M11.425 0.499999C3.7 0.499999 0.675 1.025 0.675 6.225C0.675 10.75 4.3 11.1 11.425 11.675C16.025 12.05 16.55 11.95 16.55 12.5C16.55 13.3 16.075 13.275 11.85 13.275C7.375 13.275 6.95 13.025 6.95 11.975C6.2 11.975 0.925 11.975 0.925 11.975C0.925 17.1 2.35 18 11.6 18C21.65 18 23.35 17.075 23.35 12.575C23.35 8.05 21.25 7.925 11.525 7.125C7.125 6.775 6.8 6.75 6.75 6.275C6.75 5.625 7.125 5.425 11.575 5.425C16.175 5.425 16.525 5.95 16.525 6.85C17.525 6.85 22.725 6.85 22.725 6.85C22.725 1.775 20.6 0.499999 11.425 0.499999ZM24.6543 0.474999V18H44.0293V13.15H30.4793V11.55H43.1543V6.875H30.4793V5.325H44.0293V0.474999H24.6543ZM63.5283 0.449999L57.7783 12.9L51.9783 0.449999H45.3283L53.9783 18H61.5783L70.1783 0.449999H63.5283ZM70.6504 0.474999V18H90.0254V13.15H76.4754V11.55H89.1504V6.875H76.4754V5.325H90.0254V0.474999H70.6504ZM113.699 18V0.449999H107.874V10.85L99.4244 0.449999H91.3244V18H97.1494V7.425L105.749 18H113.699ZM136.348 0.449999H128.448L121.173 7.425V0.449999H115.348V18H121.173V14.5L123.048 12.75L128.448 18H136.348L126.773 9.3L136.348 0.449999ZM148.55 18C153.275 18 157.15 17.3 158.575 14.55C159.6 12.6 159.8 10.1 159.8 4.675V0.449999H153.65C153.65 0.449999 153.65 6.175 153.65 8.3C153.65 10.45 153.3 13.2 148.55 13.2C143.8 13.2 143.3 10.45 143.3 8.3C143.3 6.175 143.3 0.449999 143.3 0.449999H137.15V4.675C137.15 10.1 137.35 12.6 138.375 14.55C139.8 17.3 143.825 18 148.55 18ZM171.654 0.499999C163.929 0.499999 160.904 1.025 160.904 6.225C160.904 10.75 164.529 11.1 171.654 11.675C176.254 12.05 176.779 11.95 176.779 12.5C176.779 13.3 176.304 13.275 172.079 13.275C167.604 13.275 167.179 13.025 167.179 11.975C166.429 11.975 161.154 11.975 161.154 11.975C161.154 17.1 162.579 18 171.829 18C181.879 18 183.579 17.075 183.579 12.575C183.579 8.05 181.479 7.925 171.754 7.125C167.354 6.775 167.029 6.75 166.979 6.275C166.979 5.625 167.354 5.425 171.804 5.425C176.404 5.425 176.754 5.95 176.754 6.85C177.754 6.85 182.954 6.85 182.954 6.85C182.954 1.775 180.829 0.499999 171.654 0.499999ZM184.122 0.449999V6.275H192.797V18H198.622V6.275H207.297V0.449999H184.122Z" fill="#F0F0F0"/>
</svg>
